# Blender 4.1.1
# www.blender.org
mtllib pork.mtl
o イノシシ
v 0.405021 0.498966 -0.724200
v 0.405021 -0.498966 0.724200
v 0.405021 0.498966 0.724200
v -0.405021 0.498966 -0.724200
v -0.405021 -0.498966 0.724200
v -0.405021 0.498966 0.724200
v 0.524703 -0.608534 -0.000000
v 0.517241 0.000000 -0.874973
v 0.524703 0.608534 0.000000
v 0.517241 -0.000000 0.874973
v 0.000000 -0.545192 0.832660
v 0.000000 0.545192 0.832660
v -0.517241 -0.000000 0.874973
v -0.524703 -0.608534 -0.000000
v -0.524703 0.608534 0.000000
v -0.517241 0.000000 -0.874973
v -0.000000 0.545192 -0.832660
v 0.717797 0.000000 -0.000000
v 0.000000 -0.000000 1.021807
v -0.717797 0.000000 0.000000
v -0.000000 0.000000 -1.320182
v -0.000000 -0.729476 -0.000000
v 0.000000 0.729476 0.000000
v 0.554784 -0.250000 -1.075401
v -0.554784 -0.250000 -1.075401
v 0.694426 -0.304784 -0.000000
v -0.694426 -0.304784 0.000000
v -0.000000 -0.304784 -1.293102
v -0.554784 -0.244781 -1.164917
v -0.510000 -0.445501 -1.206019
v 0.510000 -0.445501 -1.206019
v -0.000000 -0.555069 -1.325619
v 0.554784 -0.244781 -1.164917
v -0.000000 -0.299565 -1.382619
v 0.554784 -0.554784 0.407500
v -0.554784 -0.554784 0.407500
v 0.000000 -0.716680 0.496798
v -0.000000 -0.721928 -0.683161
v 0.554784 -0.552175 -0.623361
v -0.554784 -0.552175 -0.623361
v 0.582176 -0.580871 -0.311681
v -0.000000 -0.772860 -0.341580
v -0.582176 -0.580871 -0.311681
v -0.527392 -0.527392 0.611250
v 0.527392 -0.527392 0.611250
v 0.000000 -0.667053 0.745197
v 0.277392 -0.639661 0.452149
v 0.277392 -0.637051 -0.653261
v 0.291088 -0.680794 -0.326631
v 0.263696 -0.597222 0.678223
v -0.277392 -0.639661 0.452149
v -0.277392 -0.637051 -0.653261
v -0.291088 -0.680794 -0.326631
v -0.263696 -0.597222 0.678223
v -0.277392 -0.858993 0.454201
v -0.554784 -0.858993 0.410347
v -0.263696 -0.858993 0.680673
v -0.291088 -0.858993 -0.324963
v -0.277392 -0.858993 -0.651184
v 0.554784 -0.858993 0.410347
v 0.277392 -0.858993 0.454201
v 0.277392 -0.858993 -0.651184
v 0.291088 -0.858993 -0.324963
v 0.582176 -0.858993 -0.309078
v -0.554784 -0.858993 -0.620490
v -0.582176 -0.858993 -0.309078
v 0.527392 -0.858993 0.614353
v 0.263696 -0.858993 0.680673
v -0.527392 -0.858993 0.614353
v 0.554784 -0.858993 -0.620490
v -0.277392 -0.909164 0.351164
v -0.554784 -0.909164 0.307309
v -0.263696 -0.909164 0.680673
v 0.291088 -0.909164 -0.324963
v 0.582176 -0.909164 -0.309078
v -0.277392 -0.909164 -0.754222
v -0.554784 -0.909164 -0.723528
v -0.582176 -0.909164 -0.309078
v 0.277392 -0.909164 0.351164
v 0.263696 -0.909164 0.680673
v -0.527392 -0.909164 0.614353
v 0.527392 -0.909164 0.614353
v 0.554784 -0.909164 -0.723528
v -0.291088 -0.909164 -0.324963
v 0.554784 -0.909164 0.307309
v 0.277392 -0.909164 -0.754222
vn 0.8564 0.3341 -0.3936
vn 0.9826 -0.1839 0.0258
vn 0.9264 0.2980 -0.2303
vn 0.6079 0.6884 -0.3957
vn 0.9944 0.1055 -0.0000
vn 0.5904 0.6684 0.4525
vn 0.7951 0.0555 0.6040
vn 0.8573 -0.2005 0.4741
vn -0.0000 -0.0000 1.0000
vn -0.5904 0.6684 0.4525
vn -0.7951 0.0555 0.6040
vn -0.3957 -0.5482 0.7368
vn -0.8573 -0.2005 0.4741
vn -0.0398 -0.7329 0.6791
vn -0.0000 -0.4894 0.8720
vn -0.0000 -0.8800 0.4749
vn 0.0398 -0.7329 0.6791
vn -0.9944 0.1055 -0.0000
vn -0.6079 0.6884 -0.3957
vn -0.8564 0.3341 -0.3936
vn -0.9826 -0.1839 0.0258
vn -0.9264 0.2980 -0.2303
vn -0.0000 0.3609 -0.9326
vn -0.0000 1.0000 -0.0000
vn -0.6838 0.7297 -0.0000
vn -0.0000 0.9082 -0.4186
vn -0.1237 -0.9584 0.2573
vn 0.9048 -0.4162 0.0895
vn 0.5694 -0.8205 0.0515
vn 0.3957 -0.5482 0.7368
vn 0.1237 -0.9584 0.2573
vn -0.0000 -0.9999 -0.0122
vn -0.0000 -0.9975 0.0709
vn -0.0000 0.8145 0.5802
vn -0.0000 0.8813 -0.4725
vn 0.1797 -0.9679 -0.1756
vn -0.5694 -0.8204 0.0515
vn 0.7015 0.6548 -0.2814
vn -0.0000 0.7952 -0.6064
vn -0.7144 -0.5103 -0.4788
vn -0.8866 -0.3636 -0.2860
vn -0.0000 -0.8005 -0.5994
vn -0.0000 -0.9802 -0.1978
vn -0.0289 -0.9104 -0.4127
vn -0.1797 -0.9679 -0.1756
vn 0.8866 -0.3636 -0.2860
vn 0.7144 -0.5103 -0.4788
vn -0.9289 0.2297 -0.2906
vn 0.8896 0.2795 -0.3613
vn -0.0000 -0.9936 0.1133
vn 0.8387 0.0049 0.5446
vn 0.0289 -0.9104 -0.4127
vn -0.7015 0.6548 -0.2813
vn 0.9047 0.2620 -0.3361
vn 0.9289 0.2297 -0.2906
vn -0.8896 0.2795 -0.3613
vn -0.9046 0.2620 -0.3361
vn -0.8436 0.0025 0.5369
vn 0.8758 0.0023 0.4828
vn -0.9048 -0.4162 0.0895
vn -0.8697 0.3081 -0.3855
vn -0.8758 0.0023 0.4828
vn 0.8958 -0.4443 -0.0083
vn 0.8369 0.0034 0.5473
vn -0.8387 0.0025 0.5446
vn -0.8369 0.0026 0.5474
vn -0.8958 -0.4443 -0.0083
vn 0.8697 0.3081 -0.3855
vn 0.8436 0.0025 0.5369
vn -0.4374 0.8085 -0.3937
vn 0.8447 -0.0084 0.5352
vn 0.4302 0.8116 -0.3952
vn 0.8748 0.0200 0.4841
vn 0.8410 -0.0320 0.5401
vn 0.4433 0.8059 -0.3924
vn 0.4573 0.7996 -0.3893
vn -0.4433 0.8059 -0.3924
vn 0.4374 0.8085 -0.3937
vn -0.8748 0.0200 0.4840
vn 0.8373 0.0186 0.5465
vn -0.8410 -0.0320 0.5401
vn -0.4573 0.7996 -0.3893
vn -0.8373 0.0186 0.5465
vn -0.4302 0.8116 -0.3952
vn -0.8447 -0.0084 0.5352
vn 0.6838 0.7297 -0.0000
vn -0.0000 -1.0000 -0.0000
vt 0.304041 0.782729
vt 0.271181 0.758386
vt 0.310469 0.768187
vt 0.291497 0.814011
vt 0.267477 0.776135
vt 0.228398 0.796494
vt 0.236161 0.767275
vt 0.250639 0.738622
vt 0.205575 0.759422
vt 0.166978 0.779861
vt 0.175492 0.750778
vt 0.183333 0.723725
vt 0.177059 0.719436
vt 0.189680 0.707035
vt 0.213672 0.701200
vt 0.206528 0.691100
vt 0.236754 0.668726
vt 0.144793 0.742700
vt 0.107242 0.764902
vt 0.110882 0.732716
vt 0.149980 0.725543
vt 0.108875 0.716644
vt 0.074074 0.731663
vt 0.128903 0.805594
vt 0.137070 0.772971
vt 0.037207 0.719007
vt 0.074343 0.714072
vt 0.160615 0.626698
vt 0.186586 0.605460
vt 0.195714 0.611395
vt 0.242757 0.739476
vt 0.214492 0.725964
vt 0.150330 0.685511
vt 0.155820 0.661749
vt 0.172082 0.666055
vt 0.153310 0.844587
vt 0.165930 0.813430
vt 0.089037 0.828643
vt 0.092441 0.795161
vt 0.180395 0.699394
vt 0.155555 0.710239
vt 0.037478 0.715580
vt 0.074329 0.710181
vt 0.108721 0.699032
vt 0.133531 0.703011
vt 0.074637 0.690158
vt 0.103365 0.666448
vt 0.136094 0.660681
vt 0.133941 0.684804
vt 0.222189 0.651056
vt 0.297363 0.746713
vt 0.320017 0.754507
vt 0.179478 0.709019
vt 0.179476 0.709027
vt 0.196263 0.680259
vt 0.179474 0.709029
vt 0.091428 0.638065
vt 0.104838 0.617034
vt 0.133138 0.627556
vt 0.106006 0.713569
vt 0.141709 0.693799
vt 0.229803 0.609965
vt 0.246030 0.629030
vt 0.135100 0.600928
vt 0.156481 0.604224
vt 0.176975 0.594793
vt 0.145070 0.706528
vt 0.141700 0.693965
vt 0.141901 0.694049
vt 0.258569 0.738836
vt 0.255265 0.719060
vt 0.262813 0.720890
vt 0.255098 0.640442
vt 0.179468 0.709026
vt 0.169901 0.715602
vt 0.111721 0.600262
vt 0.141939 0.693782
vt 0.286190 0.743093
vt 0.300306 0.728498
vt 0.272969 0.649325
vt 0.141725 0.693904
vt 0.141899 0.693821
vt 0.141734 0.693867
vt 0.175449 0.591421
vt 0.255981 0.716105
vt 0.267212 0.718751
vt 0.179476 0.709026
vt 0.179476 0.709024
vt 0.274585 0.646118
vt 0.289357 0.723605
vt 0.304530 0.726109
vt 0.141862 0.693994
vt 0.179474 0.709028
vt 0.179471 0.709025
vt 0.248320 0.621750
vt 0.257744 0.637486
vt 0.111975 0.595149
vt 0.131530 0.594151
vt 0.156043 0.600036
vt 0.041078 0.698239
vt 0.042560 0.767357
vt 0.034462 0.735418
vt 0.257976 0.811380
vt 0.274787 0.739588
vt 0.196158 0.794004
vt 0.269760 0.669951
vt 0.267560 0.678879
vt 0.075303 0.770884
vt 0.119765 0.842361
vt 0.212352 0.615405
vt 0.313696 0.769203
vt 0.288858 0.726581
vt 0.234178 0.605527
vt 0.300563 0.531511
vt 0.312436 0.516529
vt 0.313402 0.533640
vt 0.269239 0.531458
vt 0.252975 0.515054
vt 0.269852 0.513609
vt 0.300231 0.531511
vt 0.288358 0.516529
vt 0.300231 0.513609
vt 0.287060 0.515054
vt 0.270796 0.531458
vt 0.270183 0.513609
vt 0.300563 0.513609
vt 0.252975 0.533763
vt 0.287392 0.533640
vt 0.287060 0.533763
s 1
usemtl マテリアル.001
f 8/1/1 26/2/2 24/3/3
f 1/4/4 18/5/5 8/1/1
f 18/5/5 3/6/6 10/7/7
f 26/2/2 10/7/7 45/8/8
f 19/9/9 6/10/10 13/11/11
f 5/12/12 44/13/13 54/14/14
f 11/15/15 46/16/16 50/17/17
f 3/6/6 19/9/9 10/7/7
f 6/10/10 20/18/18 13/11/11
f 20/18/18 4/19/19 16/20/20
f 27/21/21 16/20/20 25/22/22
f 4/19/19 21/23/23 16/20/20
f 23/24/24 4/19/19 15/25/25
f 21/23/23 24/26/3 28/27/26
f 25/22/22 21/23/23 28/27/26
f 49/28/27 41/29/28 7/30/29
f 2/31/30 19/9/9 11/32/15
f 53/33/31 42/34/32 22/35/33
f 6/10/10 23/24/24 15/25/25
f 3/36/6 23/24/24 12/37/34
f 23/24/24 1/38/4 17/39/35
f 51/40/36 14/41/37 22/35/33
f 28/27/26 33/42/38 34/43/39
f 30/44/40 40/45/41 25/22/22
f 30/44/40 34/43/39 32/46/42
f 32/47/42 38/48/43 52/49/44
f 47/50/45 22/35/33 7/30/29
f 39/51/46 31/52/47 24/3/3
f 44/13/13 13/11/11 27/21/21
f 56/53/48 51/40/36 55/54/49
f 50/17/17 37/55/50 47/50/45
f 51/40/36 57/56/51 55/54/49
f 52/49/44 42/34/32 53/33/31
f 31/57/47 39/58/46 48/59/52
f 28/27/26 29/60/53 25/22/22
f 19/9/9 5/12/12 11/32/15
f 42/34/32 48/59/52 49/28/27
f 53/33/31 59/61/54 52/49/44
f 47/50/45 60/62/55 61/63/56
f 54/14/14 37/55/50 46/16/16
f 49/28/27 62/64/57 63/65/58
f 64/66/59 49/28/27 63/65/58
f 43/67/60 65/68/61 66/69/62
f 65/68/61 52/49/44 59/61/54
f 35/70/63 67/71/64 60/72/55
f 68/73/65 47/50/45 61/63/56
f 69/74/66 36/75/67 56/53/48
f 48/59/52 70/76/68 62/64/57
f 53/33/31 66/69/62 58/77/69
f 54/14/14 69/74/66 57/56/51
f 41/78/28 70/79/68 39/51/46
f 67/80/64 50/17/17 68/73/65
f 59/61/54 77/81/70 65/68/61
f 59/61/54 84/82/71 76/83/72
f 66/69/62 84/82/71 58/77/69
f 63/65/58 75/84/73 64/66/59
f 60/72/55 82/85/74 85/86/75
f 56/53/48 71/87/76 72/88/77
f 68/73/65 82/89/74 67/80/64
f 70/79/68 75/90/73 83/91/78
f 65/68/61 78/92/79 66/69/62
f 55/54/49 73/93/80 71/87/76
f 56/53/48 81/94/81 69/74/66
f 60/62/55 79/95/82 61/63/56
f 61/63/56 80/96/83 68/73/65
f 62/64/57 83/97/78 86/98/84
f 69/74/66 73/93/80 57/56/51
f 62/64/57 74/99/85 63/65/58
f 34/43/39 31/100/47 32/46/42
f 21/23/23 1/101/4 8/102/1
f 8/1/1 18/5/5 26/2/2
f 1/4/4 9/103/86 18/5/5
f 18/5/5 9/103/86 3/6/6
f 35/70/63 7/104/29 26/2/2
f 26/2/2 18/5/5 10/7/7
f 10/7/7 2/31/30 45/8/8
f 45/8/8 35/70/63 26/2/2
f 19/9/9 12/105/34 6/10/10
f 46/16/16 11/15/15 54/14/14
f 11/15/15 5/12/12 54/14/14
f 45/106/8 2/107/30 50/17/17
f 2/107/30 11/15/15 50/17/17
f 3/6/6 12/105/34 19/9/9
f 6/10/10 15/25/25 20/18/18
f 20/18/18 15/25/25 4/19/19
f 27/21/21 20/18/18 16/20/20
f 4/19/19 17/108/35 21/23/23
f 23/24/24 17/39/35 4/19/19
f 21/23/23 8/102/1 24/26/3
f 25/22/22 16/20/20 21/23/23
f 7/30/29 22/35/33 49/28/27
f 22/35/33 42/34/32 49/28/27
f 2/31/30 10/7/7 19/9/9
f 22/35/33 14/41/37 53/33/31
f 14/41/37 43/67/60 53/33/31
f 6/10/10 12/37/34 23/24/24
f 3/36/6 9/109/86 23/24/24
f 23/24/24 9/109/86 1/38/4
f 22/35/33 37/55/50 51/40/36
f 51/40/36 36/75/67 14/41/37
f 28/27/26 24/26/3 33/42/38
f 43/67/60 14/41/37 27/21/21
f 25/22/22 29/60/53 30/44/40
f 43/67/60 27/21/21 40/45/41
f 27/21/21 25/22/22 40/45/41
f 30/44/40 29/60/53 34/43/39
f 52/49/44 40/45/41 30/44/40
f 30/44/40 32/47/42 52/49/44
f 7/30/29 35/110/63 47/50/45
f 47/50/45 37/55/50 22/35/33
f 31/52/47 33/111/38 24/3/3
f 24/3/3 26/2/2 39/51/46
f 26/2/2 7/104/29 41/78/28
f 41/78/28 39/51/46 26/2/2
f 44/13/13 5/12/12 13/11/11
f 13/11/11 20/18/18 27/21/21
f 27/21/21 14/41/37 36/75/67
f 36/75/67 44/13/13 27/21/21
f 56/53/48 36/75/67 51/40/36
f 50/17/17 46/16/16 37/55/50
f 51/40/36 54/14/14 57/56/51
f 52/49/44 38/48/43 42/34/32
f 48/59/52 38/48/43 32/47/42
f 32/47/42 31/57/47 48/59/52
f 28/27/26 34/43/39 29/60/53
f 19/9/9 13/11/11 5/12/12
f 42/34/32 38/48/43 48/59/52
f 53/33/31 58/77/69 59/61/54
f 47/50/45 35/110/63 60/62/55
f 54/14/14 51/40/36 37/55/50
f 49/28/27 48/59/52 62/64/57
f 64/66/59 41/29/28 49/28/27
f 43/67/60 40/45/41 65/68/61
f 65/68/61 40/45/41 52/49/44
f 35/70/63 45/8/8 67/71/64
f 68/73/65 50/17/17 47/50/45
f 69/74/66 44/13/13 36/75/67
f 48/59/52 39/58/46 70/76/68
f 53/33/31 43/67/60 66/69/62
f 54/14/14 44/13/13 69/74/66
f 41/78/28 64/112/59 70/79/68
f 67/80/64 45/106/8 50/17/17
f 59/61/54 76/83/72 77/81/70
f 59/61/54 58/77/69 84/82/71
f 66/69/62 78/92/79 84/82/71
f 63/65/58 74/99/85 75/84/73
f 60/72/55 67/71/64 82/85/74
f 56/53/48 55/54/49 71/87/76
f 68/73/65 80/96/83 82/89/74
f 70/79/68 64/112/59 75/90/73
f 65/68/61 77/81/70 78/92/79
f 55/54/49 57/56/51 73/93/80
f 56/53/48 72/88/77 81/94/81
f 60/62/55 85/113/75 79/95/82
f 61/63/56 79/95/82 80/96/83
f 62/64/57 70/76/68 83/97/78
f 69/74/66 81/94/81 73/93/80
f 62/64/57 86/98/84 74/99/85
f 34/43/39 33/42/38 31/100/47
f 21/23/23 17/108/35 1/101/4
s 0
usemtl マテリアル
f 79/114/87 82/115/87 80/116/87
f 83/117/87 74/118/87 86/119/87
f 71/120/87 81/121/87 72/122/87
f 84/123/87 77/124/87 76/125/87
f 79/114/87 85/126/87 82/115/87
f 83/117/87 75/127/87 74/118/87
f 71/120/87 73/128/87 81/121/87
f 84/123/87 78/129/87 77/124/87
o 牙
v 0.441926 -0.136979 -1.200272
v 0.382391 -0.138255 -1.216811
v 0.342938 -0.157956 -1.260112
v 0.338637 -0.188557 -1.313636
v 0.371131 -0.218369 -1.356937
v 0.428009 -0.236006 -1.373477
v 0.487544 -0.234730 -1.356937
v 0.526997 -0.215029 -1.313636
v 0.531298 -0.184428 -1.260112
v 0.498804 -0.154615 -1.216811
v 0.480768 0.139395 -1.476874
v 0.426054 -0.245663 -0.976539
v 0.366518 -0.246939 -0.993079
v 0.327065 -0.266640 -1.036380
v 0.322765 -0.297241 -1.089904
v 0.355259 -0.327054 -1.133205
v 0.412136 -0.344690 -1.149745
v 0.471672 -0.343414 -1.133205
v 0.511125 -0.323714 -1.089904
v 0.515426 -0.293113 -1.036380
v 0.482931 -0.263300 -0.993079
v -0.441927 -0.136979 -1.200272
v -0.498804 -0.154616 -1.216811
v -0.531298 -0.184428 -1.260113
v -0.526998 -0.215029 -1.313636
v -0.487545 -0.234730 -1.356937
v -0.428009 -0.236006 -1.373477
v -0.371132 -0.218369 -1.356937
v -0.338637 -0.188557 -1.313636
v -0.342938 -0.157956 -1.260113
v -0.382391 -0.138255 -1.216811
v -0.480768 0.139395 -1.476874
v -0.427227 -0.245828 -0.976539
v -0.484104 -0.263465 -0.993079
v -0.516598 -0.293277 -1.036380
v -0.512298 -0.323878 -1.089904
v -0.472845 -0.343579 -1.133205
v -0.413309 -0.344855 -1.149745
v -0.356432 -0.327219 -1.133205
v -0.323937 -0.297406 -1.089904
v -0.328238 -0.266805 -1.036380
v -0.367691 -0.247104 -0.993079
vn 0.1137 0.8060 0.5808
vn 0.1205 0.8576 -0.5000
vn -0.4942 0.7456 0.4470
vn -0.9192 0.3814 0.0984
vn -0.9445 -0.0694 -0.3210
vn -0.6209 -0.4048 -0.6713
vn -0.0816 -0.5824 -0.8088
vn 0.4856 -0.5606 -0.6707
vn 0.8889 -0.3282 -0.3197
vn 0.9888 0.1106 0.1000
vn 0.9564 -0.2835 -0.0698
vn 0.6813 0.5790 0.4479
vn -0.9974 -0.0038 -0.0726
vn -0.7836 0.5788 0.2256
vn 0.5603 0.7287 0.3938
vn -0.1257 -0.8888 -0.4407
vn -0.7029 -0.6189 -0.3505
vn 0.5027 -0.7910 -0.3486
vn -0.3379 0.8558 0.3918
vn 0.9132 0.3374 0.2287
vn 0.1243 0.8890 0.4407
vn -0.1117 0.8076 0.5791
vn -0.5153 0.7404 -0.4317
vn -0.6783 0.5782 0.4534
vn -0.9853 0.1313 0.1091
vn -0.8967 -0.2865 -0.3375
vn -0.4767 -0.5357 -0.6970
vn 0.0979 -0.5863 -0.8042
vn 0.6209 -0.4473 -0.6438
vn 0.9427 -0.1240 -0.3096
vn 0.9203 0.3786 0.0981
vn 0.9973 -0.0131 -0.0719
vn 0.4882 0.7509 0.4447
vn -0.9525 -0.2938 -0.0803
vn -0.9030 0.3600 0.2345
vn 0.3626 0.8472 0.3883
vn 0.1659 -0.8824 -0.4402
vn -0.4672 -0.8067 -0.3618
vn 0.7248 -0.5996 -0.3393
vn -0.5359 0.7448 0.3976
vn 0.8014 0.5569 0.2183
vn -0.0986 0.8923 0.4406
vt 0.148157 0.304713
vt 0.132436 0.310696
vt 0.139781 0.297857
vt 0.130927 0.300424
vt 0.127788 0.305955
vt 0.127414 0.309657
vt 0.128158 0.312327
vt 0.129386 0.314808
vt 0.132124 0.317298
vt 0.138109 0.319319
vt 0.188732 0.495880
vt 0.146420 0.315388
vt 0.050521 0.133960
vt 0.150691 0.020870
vt 0.503092 0.394832
vt 0.000166 0.360974
vt 0.001193 0.247455
vt 0.076458 0.444685
vt 0.353724 0.000166
vt 0.338030 0.513278
vt 0.503092 0.169280
vt 0.659106 0.351454
vt 0.655102 0.359609
vt 0.653618 0.353108
vt 0.651961 0.357345
vt 0.652534 0.359834
vt 0.653377 0.361146
vt 0.654450 0.361935
vt 0.655941 0.362647
vt 0.658635 0.362841
vt 0.662653 0.360735
vt 0.857652 0.479066
vt 0.663470 0.355346
vt 0.503423 0.306333
vt 0.504433 0.173745
vt 0.999834 0.128331
vt 0.604416 0.489545
vt 0.535715 0.413910
vt 0.722519 0.505869
vt 0.597841 0.023467
vt 0.999834 0.363317
vt 0.815570 0.000166
s 1
usemtl マテリアル.001
f 87/130/88 97/131/89 88/132/90
f 88/132/90 97/131/89 89/133/91
f 89/133/91 97/131/89 90/134/92
f 90/134/92 97/131/89 91/135/93
f 91/135/93 97/131/89 92/136/94
f 92/136/94 97/131/89 93/137/95
f 93/137/95 97/131/89 94/138/96
f 94/138/96 97/131/89 95/139/97
f 95/139/97 105/140/98 94/138/96
f 95/139/97 97/131/89 96/141/99
f 96/141/99 97/131/89 87/130/88
f 89/133/91 101/142/100 100/143/101
f 87/130/88 107/144/102 96/141/99
f 91/135/93 103/145/103 102/146/104
f 94/138/96 104/147/105 93/137/95
f 88/132/90 100/143/101 99/148/106
f 96/141/99 106/149/107 95/139/97
f 87/130/88 99/148/106 98/150/108
f 90/134/92 102/146/104 101/142/100
f 93/137/95 103/145/103 92/136/94
f 108/151/109 118/152/110 109/153/111
f 109/153/111 118/152/110 110/154/112
f 110/154/112 118/152/110 111/155/113
f 111/155/113 118/152/110 112/156/114
f 112/156/114 118/152/110 113/157/115
f 113/157/115 118/152/110 114/158/116
f 114/158/116 118/152/110 115/159/117
f 115/159/117 118/152/110 116/160/118
f 116/160/118 126/161/119 115/159/117
f 116/160/118 118/152/110 117/162/120
f 117/162/120 118/152/110 108/151/109
f 110/154/112 122/163/121 121/164/122
f 108/151/109 128/165/123 117/162/120
f 112/156/114 124/166/124 123/167/125
f 115/159/117 125/168/126 114/158/116
f 109/153/111 121/164/122 120/169/127
f 117/162/120 127/170/128 116/160/118
f 108/151/109 120/169/127 119/171/129
f 111/155/113 123/167/125 122/163/121
f 114/158/116 124/166/124 113/157/115
f 95/139/97 106/149/107 105/140/98
f 89/133/91 90/134/92 101/142/100
f 87/130/88 98/150/108 107/144/102
f 91/135/93 92/136/94 103/145/103
f 94/138/96 105/140/98 104/147/105
f 88/132/90 89/133/91 100/143/101
f 96/141/99 107/144/102 106/149/107
f 87/130/88 88/132/90 99/148/106
f 90/134/92 91/135/93 102/146/104
f 93/137/95 104/147/105 103/145/103
f 116/160/118 127/170/128 126/161/119
f 110/154/112 111/155/113 122/163/121
f 108/151/109 119/171/129 128/165/123
f 112/156/114 113/157/115 124/166/124
f 115/159/117 126/161/119 125/168/126
f 109/153/111 110/154/112 121/164/122
f 117/162/120 128/165/123 127/170/128
f 108/151/109 109/153/111 120/169/127
f 111/155/113 112/156/114 123/167/125
f 114/158/116 125/168/126 124/166/124
o 鼻
v 0.250000 -0.150000 -1.328130
v 0.166825 0.113141 -1.328130
v 0.250000 -0.150000 -1.128129
v 0.166825 0.113141 -1.128129
v -0.250000 -0.150000 -1.328130
v -0.166825 0.113141 -1.328130
v -0.250000 -0.150000 -1.128129
v -0.166825 0.113141 -1.128129
v 0.047960 0.066039 -1.328130
v 0.071993 0.053274 -1.328130
v 0.147960 -0.077434 -1.328130
v 0.123077 0.026142 -1.328130
v 0.060461 -0.051042 -1.328130
v -0.147960 -0.077434 -1.328130
v -0.060462 -0.051042 -1.328130
v -0.047960 0.066039 -1.328130
v -0.123077 0.026142 -1.328130
vn 0.2757 0.5547 -0.7850
vn 0.5868 -0.8098 -0.0000
vn 0.3552 -0.4903 -0.7959
vn -0.4450 0.8955 -0.0000
vn -0.3552 -0.4903 -0.7959
vn -0.5867 -0.8098 -0.0000
vn -0.2756 0.5547 -0.7851
vn -0.0000 -0.0000 -1.0000
vn 0.4450 0.8955 -0.0001
vt 0.640989 0.654786
vt 0.503423 0.837989
vt 0.631918 0.668066
vt 0.783265 0.534863
vt 0.623450 0.648898
vt 0.503423 0.506200
vt 0.633361 0.644340
vt 0.631300 0.648821
vt 0.636463 0.652454
vt 0.629437 0.653032
vt 0.634330 0.649433
vt 0.632667 0.661132
vt 0.636265 0.656443
vt 0.804516 0.766136
vt 0.627251 0.650781
vt 0.631748 0.657158
vt 0.636388 0.653929
s 1
usemtl マテリアル.001
f 130/172/130 131/173/131 129/174/132
f 136/175/133 133/176/134 135/177/135
f 133/176/134 134/178/136 145/179/137
f 137/180/137 143/181/137 144/182/137
f 129/174/132 139/183/137 140/184/137
f 135/177/135 129/174/132 131/173/131
f 132/185/138 134/178/136 136/175/133
f 130/172/130 132/185/138 131/173/131
f 136/175/133 134/178/136 133/176/134
f 142/186/137 143/181/137 141/187/137
f 141/187/137 139/183/137 142/186/137
f 139/183/137 129/174/132 133/176/134
f 130/172/130 138/188/137 137/180/137
f 130/172/130 137/180/137 134/178/136
f 137/180/137 144/182/137 134/178/136
f 139/183/137 133/176/134 142/186/137
f 145/179/137 142/186/137 133/176/134
f 134/178/136 144/182/137 145/179/137
f 137/180/137 141/187/137 143/181/137
f 140/184/137 138/188/137 130/172/130
f 130/172/130 129/174/132 140/184/137
f 135/177/135 133/176/134 129/174/132
f 132/185/138 130/172/130 134/178/136
